<svg xmlns="http://www.w3.org/2000/svg" version="1.1" xmlns:xlink="http://www.w3.org/1999/xlink" width="1024px" height="1024px" viewBox="0 0 1024 1024"><metadata><rdf:RDF xmlns:rdf="http://www.w3.org/1999/02/22-rdf-syntax-ns#" xmlns:dc="http://purl.org/dc/elements/1.1/"><rdf:Description><dc:creator>RealFaviconGenerator</dc:creator><dc:source>https://realfavicongenerator.net</dc:source></rdf:Description></rdf:RDF></metadata><title>Frame</title><defs>
        <path d="M0,0 L1024,0 L1024,1024 L0,1024 Z" id="path-1"></path>
    </defs><g id="Frame" stroke="none" fill="none" xlink:href="#path-1" fill-rule="evenodd">
        <use fill="#F9F4ED" xlink:href="#path-1"></use>
        <rect id="Rectangle" fill="#000000" x="192" y="156" width="64" height="64"></rect>
        <rect id="Rectangle" fill="#000000" x="264" y="156" width="64" height="64"></rect>
        <rect id="Rectangle" fill="#000000" x="336" y="156" width="64" height="64"></rect>
        <rect id="Rectangle" fill="#000000" x="264" y="84" width="64" height="64"></rect>
        <rect id="Rectangle" fill="#000000" x="264" y="228" width="64" height="64"></rect>
        <rect id="Rectangle" fill="#000000" x="264" y="300" width="64" height="64"></rect>
        <rect id="Rectangle" fill="#000000" x="336" y="372" width="64" height="64"></rect>
        <rect id="Rectangle" fill="#000000" x="264" y="372" width="64" height="64"></rect>
        <rect id="Rectangle" fill="#000000" x="696" y="732" width="64" height="64"></rect>
        <rect id="Rectangle" fill="#000000" x="696" y="804" width="64" height="64"></rect>
        <rect id="Rectangle" fill="#000000" x="768" y="876" width="64" height="64"></rect>
        <rect id="Rectangle" fill="#000000" x="696" y="876" width="64" height="64"></rect>
        <rect id="Rectangle" fill="#000000" x="408" y="444" width="64" height="64"></rect>
        <rect id="Rectangle" fill="#000000" x="480" y="516" width="64" height="64"></rect>
        <rect id="Rectangle" fill="#000000" x="552" y="588" width="64" height="64"></rect>
        <rect id="Rectangle" fill="#000000" x="552" y="588" width="64" height="64"></rect>
        <rect id="Rectangle" fill="#000000" x="624" y="660" width="64" height="64"></rect>
        <rect id="Rectangle" fill="#000000" x="696" y="660" width="64" height="64"></rect>
        <rect id="Rectangle" fill="#000000" x="768" y="660" width="64" height="64"></rect>
        <rect id="Rectangle" fill="#000000" x="696" y="588" width="64" height="64"></rect>
        <rect id="Rectangle" fill="#000000" x="552" y="444" width="64" height="64"></rect>
        <rect id="Rectangle" fill="#000000" x="624" y="372" width="64" height="64"></rect>
        <rect id="Rectangle" fill="#000000" x="336" y="660" width="64" height="64"></rect>
        <rect id="Rectangle" fill="#000000" x="408" y="588" width="64" height="64"></rect>
    </g></svg>